<svg width="61" height="83" viewBox="0 0 61 83" fill="none" xmlns="http://www.w3.org/2000/svg">
<path d="M30.1576 0C13.5277 0 0 13.5277 0 30.1576C0 46.3605 27.9084 80.5755 29.0951 82.0271C29.3564 82.3434 29.7484 82.5291 30.1576 82.5291C30.5702 82.5291 30.9588 82.3434 31.2201 82.0271C32.4065 80.5794 60.3152 46.3605 60.3152 30.1576C60.3152 13.5277 46.7875 0 30.1576 0ZM30.1576 78.9557C24.9858 72.4497 2.75096 43.6782 2.75096 30.1567C2.75096 15.0436 15.0445 2.75008 30.1576 2.75008C45.2707 2.75008 57.5642 15.0436 57.5642 30.1567C57.5642 43.6774 35.3294 72.4458 30.1576 78.9557Z" fill="#000"/>
<path d="M49.764 25.3018L31.0232 10.1852C30.5211 9.77942 29.799 9.77942 29.297 10.1852L10.5561 25.3018C10.1022 25.6663 9.93025 26.2784 10.1228 26.8286C10.3154 27.3788 10.8381 27.7468 11.4192 27.7468H14.8752V44.7271C14.8752 45.487 15.4907 46.1025 16.2506 46.1025H44.0701C44.8301 46.1025 45.4456 45.487 45.4456 44.7271V27.7468H48.9015C49.4861 27.7468 50.0053 27.3789 50.1979 26.8286C50.3906 26.2784 50.2179 25.6664 49.764 25.3018ZM26.8241 43.3517V32.8082H33.4986V43.3517H26.8241ZM44.0693 24.999C43.3094 24.999 42.6938 25.6145 42.6938 26.3745V43.3547H36.2497V31.4363C36.2497 30.6763 35.6342 30.0608 34.8742 30.0608H25.4488C24.6888 30.0608 24.0733 30.6763 24.0733 31.4363V43.3547H17.6292V26.3745C17.6292 25.6145 17.0137 24.999 16.2537 24.999H15.3184L30.163 13.0251L45.0076 24.999H44.0693Z" fill="#000"/>
</svg>
