<svg width="80" height="16" viewBox="0 0 80 16" fill="none" xmlns="http://www.w3.org/2000/svg">
<path d="M79 6.5H73.625L72 1.5L70.375 6.5H65L69.375 9.5L67.6875 14.5L72 11.375L76.3125 14.5L74.625 9.5L79 6.5Z" stroke="#00473E" stroke-linejoin="round"/>
<path d="M12.3122 15.0005C12.2069 15.0009 12.1042 14.9681 12.0187 14.9067L7.99966 11.993L3.9806 14.9067C3.89474 14.969 3.79129 15.0024 3.68522 15.002C3.57915 15.0016 3.47595 14.9675 3.39054 14.9046C3.30513 14.8417 3.24193 14.7532 3.21009 14.6521C3.17825 14.5509 3.17942 14.4422 3.21341 14.3417L4.78091 9.69891L0.718413 6.91298C0.630416 6.8527 0.564002 6.76586 0.528872 6.66515C0.493743 6.56444 0.491741 6.45513 0.523158 6.3532C0.554575 6.25127 0.617764 6.16206 0.703494 6.0986C0.789224 6.03514 0.893001 6.00076 0.999663 6.00048H6.01154L7.52404 1.34579C7.55662 1.2453 7.6202 1.15771 7.70564 1.09558C7.79109 1.03346 7.89402 1 7.99966 1C8.10531 1 8.20823 1.03346 8.29368 1.09558C8.37913 1.15771 8.44271 1.2453 8.47529 1.34579L9.98779 6.00204H14.9997C15.1065 6.00199 15.2105 6.03613 15.2964 6.09947C15.3824 6.16281 15.4459 6.25201 15.4775 6.35402C15.5091 6.45603 15.5072 6.56548 15.4721 6.66634C15.437 6.76721 15.3706 6.85419 15.2825 6.91454L11.2184 9.69891L12.785 14.3405C12.8104 14.4156 12.8175 14.4957 12.8058 14.5742C12.7941 14.6526 12.7639 14.7272 12.7177 14.7917C12.6715 14.8561 12.6107 14.9087 12.5401 14.945C12.4696 14.9813 12.3915 15.0003 12.3122 15.0005Z" fill="#00473E"/>
<path d="M28.3122 15.0005C28.2069 15.0009 28.1042 14.9681 28.0187 14.9067L23.9997 11.993L19.9806 14.9067C19.8947 14.969 19.7913 15.0024 19.6852 15.002C19.5791 15.0016 19.4759 14.9675 19.3905 14.9046C19.3051 14.8417 19.2419 14.7532 19.2101 14.6521C19.1783 14.5509 19.1794 14.4422 19.2134 14.3417L20.7809 9.69891L16.7184 6.91298C16.6304 6.8527 16.564 6.76586 16.5289 6.66515C16.4937 6.56444 16.4917 6.45513 16.5232 6.3532C16.5546 6.25127 16.6178 6.16206 16.7035 6.0986C16.7892 6.03514 16.893 6.00076 16.9997 6.00048H22.0115L23.524 1.34579C23.5566 1.2453 23.6202 1.15771 23.7056 1.09558C23.7911 1.03346 23.894 1 23.9997 1C24.1053 1 24.2082 1.03346 24.2937 1.09558C24.3791 1.15771 24.4427 1.2453 24.4753 1.34579L25.9878 6.00204H30.9997C31.1065 6.00199 31.2105 6.03613 31.2964 6.09947C31.3824 6.16281 31.4459 6.25201 31.4775 6.35402C31.5091 6.45603 31.5072 6.56548 31.4721 6.66634C31.437 6.76721 31.3706 6.85419 31.2825 6.91454L27.2184 9.69891L28.785 14.3405C28.8104 14.4156 28.8175 14.4957 28.8058 14.5742C28.7941 14.6526 28.7639 14.7272 28.7177 14.7917C28.6715 14.8561 28.6107 14.9087 28.5401 14.945C28.4696 14.9813 28.3915 15.0003 28.3122 15.0005Z" fill="#00473E"/>
<path d="M44.3122 15.0005C44.2069 15.0009 44.1042 14.9681 44.0187 14.9067L39.9997 11.993L35.9806 14.9067C35.8947 14.969 35.7913 15.0024 35.6852 15.002C35.5791 15.0016 35.4759 14.9675 35.3905 14.9046C35.3051 14.8417 35.2419 14.7532 35.2101 14.6521C35.1783 14.5509 35.1794 14.4422 35.2134 14.3417L36.7809 9.69891L32.7184 6.91298C32.6304 6.8527 32.564 6.76586 32.5289 6.66515C32.4937 6.56444 32.4917 6.45513 32.5232 6.3532C32.5546 6.25127 32.6178 6.16206 32.7035 6.0986C32.7892 6.03514 32.893 6.00076 32.9997 6.00048H38.0115L39.524 1.34579C39.5566 1.2453 39.6202 1.15771 39.7056 1.09558C39.7911 1.03346 39.894 1 39.9997 1C40.1053 1 40.2082 1.03346 40.2937 1.09558C40.3791 1.15771 40.4427 1.2453 40.4753 1.34579L41.9878 6.00204H46.9997C47.1065 6.00199 47.2105 6.03613 47.2964 6.09947C47.3824 6.16281 47.4459 6.25201 47.4775 6.35402C47.5091 6.45603 47.5072 6.56548 47.4721 6.66634C47.437 6.76721 47.3706 6.85419 47.2825 6.91454L43.2184 9.69891L44.785 14.3405C44.8104 14.4156 44.8175 14.4957 44.8058 14.5742C44.7941 14.6526 44.7639 14.7272 44.7177 14.7917C44.6715 14.8561 44.6107 14.9087 44.5401 14.945C44.4696 14.9813 44.3915 15.0003 44.3122 15.0005Z" fill="#00473E"/>
<path d="M60.3122 15.0005C60.2069 15.0009 60.1042 14.9681 60.0187 14.9067L55.9997 11.993L51.9806 14.9067C51.8947 14.969 51.7913 15.0024 51.6852 15.002C51.5791 15.0016 51.4759 14.9675 51.3905 14.9046C51.3051 14.8417 51.2419 14.7532 51.2101 14.6521C51.1783 14.5509 51.1794 14.4422 51.2134 14.3417L52.7809 9.69891L48.7184 6.91298C48.6304 6.8527 48.564 6.76586 48.5289 6.66515C48.4937 6.56444 48.4917 6.45513 48.5232 6.3532C48.5546 6.25127 48.6178 6.16206 48.7035 6.0986C48.7892 6.03514 48.893 6.00076 48.9997 6.00048H54.0115L55.524 1.34579C55.5566 1.2453 55.6202 1.15771 55.7056 1.09558C55.7911 1.03346 55.894 1 55.9997 1C56.1053 1 56.2082 1.03346 56.2937 1.09558C56.3791 1.15771 56.4427 1.2453 56.4753 1.34579L57.9878 6.00204H62.9997C63.1065 6.00199 63.2105 6.03613 63.2964 6.09947C63.3824 6.16281 63.4459 6.25201 63.4775 6.35402C63.5091 6.45603 63.5072 6.56548 63.4721 6.66634C63.437 6.76721 63.3706 6.85419 63.2825 6.91454L59.2184 9.69891L60.785 14.3405C60.8104 14.4156 60.8175 14.4957 60.8058 14.5742C60.7941 14.6526 60.7639 14.7272 60.7177 14.7917C60.6715 14.8561 60.6107 14.9087 60.5401 14.945C60.4696 14.9813 60.3915 15.0003 60.3122 15.0005Z" fill="#00473E"/>
</svg>
