<svg width="26" height="38" viewBox="0 0 26 38" fill="none" xmlns="http://www.w3.org/2000/svg"><path d="M12.898 0A9.447 9.447 0 0 0 3.45 9.447v5.129H7.77v-5.13a5.13 5.13 0 1 1 10.26 0v5.13h4.316v-5.13A9.444 9.444 0 0 0 12.9 0h-.001ZM23.003 15.49H2.995A2.996 2.996 0 0 0 0 18.487V34.03a2.996 2.996 0 0 0 2.995 2.997h20.008A2.997 2.997 0 0 0 26 34.028v-15.54a2.998 2.998 0 0 0-2.997-2.998Zm-8.194 11.632 1.446 4.327a.915.915 0 0 1-.867 1.202h-4.776a.915.915 0 0 1-.867-1.202l1.446-4.328a.475.475 0 0 0-.178-.549 3.658 3.658 0 1 1 4.01-.025.5.5 0 0 0-.213.575Z" fill="#F2F7F5"/></svg>