<svg width="148" height="143" viewBox="0 0 148 143" fill="none" xmlns="http://www.w3.org/2000/svg"><path fill-rule="evenodd" clip-rule="evenodd" d="M64.579 3.056a16 16 0 0 1 18.81 0l57.982 42.127a16.001 16.001 0 0 1 5.812 17.888l-22.147 68.163a16 16 0 0 1-15.217 11.055H70.513c.16-1.477.242-2.977.242-4.496 0-22.891-18.557-41.449-41.449-41.449a41.307 41.307 0 0 0-16.589 3.454L.784 63.07a16 16 0 0 1 5.813-17.889L64.579 3.056Zm1.908 139.233h-9.005c.232-1.464.353-2.966.353-4.496 0-15.757-12.773-28.53-28.53-28.53-4.51 0-8.775 1.047-12.567 2.91l-2.778-8.55a37.324 37.324 0 0 1 15.346-3.279c20.682 0 37.449 16.767 37.449 37.449a37.8 37.8 0 0 1-.268 4.496Zm-12.652-4.496a24.66 24.66 0 0 1-.412 4.496H44.26c.428-1.424.658-2.933.658-4.496 0-8.622-6.99-15.611-15.61-15.611a15.54 15.54 0 0 0-8.5 2.514l-2.817-8.672a24.418 24.418 0 0 1 11.315-2.761c13.547 0 24.53 10.983 24.53 24.53Zm-13.821 4.496h-1.866a16 16 0 0 1-15.217-11.055l-.827-2.548a11.559 11.559 0 0 1 7.202-2.504c6.412 0 11.61 5.198 11.61 11.611 0 1.594-.32 3.113-.902 4.496Zm15.285-99.774a5 5 0 0 0-5 5v11.532a5 5 0 0 0 5 5h11.532a5 5 0 0 0 5-5V47.515a5 5 0 0 0-5-5H55.299Zm-5 31.915a5 5 0 0 1 5-5h11.532a5 5 0 0 1 5 5V85.96a5 5 0 0 1-5 5H55.299a5 5 0 0 1-5-5V74.43Zm31.916-31.915a5 5 0 0 0-5 5v11.532a5 5 0 0 0 5 5h11.532a5 5 0 0 0 5-5V47.515a5 5 0 0 0-5-5H82.215Zm-5 31.915a5 5 0 0 1 5-5h11.532a5 5 0 0 1 5 5V85.96a5 5 0 0 1-5 5H82.215a5 5 0 0 1-5-5V74.43Z" fill="#F2F7F5"/></svg>