<svg width="161" height="145" viewBox="0 0 161 145" fill="none" xmlns="http://www.w3.org/2000/svg"><path d="M49.688 136.688a5.063 5.063 0 1 0-.001-10.126 5.063 5.063 0 0 0 0 10.126ZM120.562 136.688a5.063 5.063 0 1 0 0-10.127 5.063 5.063 0 0 0 0 10.127ZM9.188 25.313h20.25l15.187 86.062h81" stroke="#475D5B" stroke-width="3" stroke-linecap="round" stroke-linejoin="round"/><path fill-rule="evenodd" clip-rule="evenodd" d="M131.312 70.344a30.36 30.36 0 0 1-3.144.426l-3.606 18.026a1.028 1.028 0 0 1-1.012.829H44.625a1.5 1.5 0 0 0 0 3h78.924v-1.5l-.001 1.5a4.034 4.034 0 0 0 3.956-3.24l3.808-19.041Zm-6.75 18.452 1.471.294-1.471-.294ZM95.286 39H34.5a1.5 1.5 0 0 0 0 3h60.786a30.841 30.841 0 0 1 0-3Z" fill="#475D5B"/><path d="M128.156 10.125c-15.352 0-27.844 12.489-27.844 27.844s12.492 27.843 27.844 27.843S156 53.325 156 37.97s-12.492-27.844-27.844-27.844Zm0 52.593c-13.646 0-24.749-11.103-24.749-24.75 0-13.646 11.103-24.748 24.749-24.748 13.647 0 24.749 11.102 24.749 24.749 0 13.646-11.102 24.749-24.749 24.749Z" fill="#475D5B"/><path d="M117.705 27.54a2.09 2.09 0 0 0 0 2.954l7.487 7.487-7.487 7.487a2.09 2.09 0 0 0 2.954 2.953l7.486-7.487 7.487 7.487a2.09 2.09 0 0 0 2.954-2.953l-7.487-7.487 7.487-7.487a2.09 2.09 0 0 0-2.954-2.953l-7.487 7.487-7.486-7.487a2.09 2.09 0 0 0-2.954 0Z" fill="#475D5B"/></svg>