<svg width="182" height="172" viewBox="0 0 182 172" fill="none" xmlns="http://www.w3.org/2000/svg"><path d="M139.645 64.946c6.967-4.509 11.764-11.451 13.51-19.548 0 0 0-.002 0 0 1.742-8.11.211-16.42-4.321-23.409a32.812 32.812 0 0 0-4.886-5.802c-1.697-1.56-3.488-2.902-5.321-3.989-3.741-2.221-8.051-3.652-12.459-4.138-6.889-.782-13.632.717-19.473 4.324l-.871.53c-3.763 2.421-6.896 5.587-9.313 9.41l-.455.723a30.849 30.849 0 0 0-4.237 13.423 30.86 30.86 0 0 0 2.002 13.63 29.522 29.522 0 0 0 2.875 5.655 30.486 30.486 0 0 0 10.193 9.836c4.938 2.928 10.413 4.385 15.878 4.385 5.867 0 11.721-1.682 16.878-5.03Zm-39.13-11.663a25.087 25.087 0 0 1-2.446-4.813 26.34 26.34 0 0 1-1.713-11.65 26.244 26.244 0 0 1 3.579-11.396l.422-.67c2.059-3.257 4.728-5.954 7.878-7.983l.835-.507a25.651 25.651 0 0 1 13.561-3.854c1.005 0 2.018.057 3.033.173 3.774.415 7.454 1.635 10.642 3.529a27.555 27.555 0 0 1 4.541 3.403 28.146 28.146 0 0 1 4.176 4.961c3.862 5.955 5.17 13.046 3.684 19.964-1.491 6.91-5.588 12.837-11.535 16.688-8.502 5.52-19.217 5.73-27.964.549-3.528-2.088-6.449-4.909-8.693-8.394Z" fill="#475D5B"/><path d="m181.634 107.222-14.38-22.19.659-.575a4.493 4.493 0 0 0 1.522-3.407 4.498 4.498 0 0 0-1.571-3.39 2.335 2.335 0 0 0-.4-.274l-14.634-7.891c-.65-.348-1.377-.316-2-.035l-1.368-2.11c-.023-.036-.061-.054-.086-.088 13.522-12.651 16.318-33.662 6.051-49.487-1.659-2.59-3.699-5.037-6.067-7.269-6.025-5.675-13.943-9.318-22.301-10.26-8.627-.963-17.1.918-24.452 5.42-.34.198-.677.397-1.015.623-.064.043-.127.09-.187.138a38.147 38.147 0 0 0-11.492 11.66c-.242.362-.451.695-.587.95a38.695 38.695 0 0 0-5.334 16.817c-.462 5.889.382 11.63 2.5 17.032a35.83 35.83 0 0 0 3.62 7.13 38.897 38.897 0 0 0 9.298 9.98h-37.1c-.463 0-.914.14-1.297.405L29.3 92.396h-4.258c-.513 0-1.01.173-1.412.492L1.344 110.543a2.43 2.43 0 0 0-.198.177 3.868 3.868 0 0 0-.893 4.128c.542 1.453 1.84 2.425 3.284 2.526l23.9 2.785v25.783c0 4.537 3.222 8.489 7.627 9.39l73.964 16.228c.16.036.324.053.487.053.285 0 .563-.066.828-.17.084-.033.154-.086.233-.129.123-.066.254-.114.365-.203.041-.033.057-.085.095-.12.043-.039.1-.055.14-.098l32.908-35.183c3.205-3.382 4.972-7.835 4.972-12.541v-21.374l12.114 18.702a2.275 2.275 0 0 0 3.146.673l16.647-10.802a2.273 2.273 0 0 0 .671-3.146Zm-16.883-26.046-.082-.127.14.076-.058.05Zm-14.208-3.797-3.947 2.548-4.664-7.194a39.66 39.66 0 0 0 1.985-1.19c.779-.503 1.393-.94 1.957-1.366l4.669 7.202Zm-5.21 20.723c-.014.011-.031.017-.045.029l-13.715 11.941-18.503-15.483 21.475-18.64a36.81 36.81 0 0 0 3.294-1.213c.02.036.021.078.044.113l5.26 8.114a8.5 8.5 0 0 0-1.33 3.075 8.467 8.467 0 0 0 1.22 6.459l3.151 4.865-.851.74ZM93.921 57.527a31.454 31.454 0 0 1-3.184-6.272c-1.873-4.786-2.617-9.846-2.208-15.05a34.308 34.308 0 0 1 4.747-14.915c.118-.215.256-.43.45-.72a33.708 33.708 0 0 1 10.314-10.428c.078-.05.151-.104.223-.163.211-.136.428-.261.677-.406 6.521-3.995 13.999-5.654 21.61-4.806 7.385.832 14.377 4.046 19.691 9.05 2.097 1.978 3.899 4.136 5.356 6.416a.036.036 0 0 1 .009.013c9.684 14.92 6.216 35.066-7.942 45.899-.618.498-1.302.985-2.22 1.578-2.755 1.786-5.681 3.143-8.718 4.039a34.2 34.2 0 0 1-24.093-1.566c-6.008-2.697-11.091-7.072-14.712-12.67Zm-30.9 17.019h44.262c4.927 2.145 10.195 3.253 15.482 3.253.942 0 1.885-.035 2.827-.104l-16.936 14.7h-71.37l25.736-17.85Zm-37.188 22.4h78.829l-16.593 19.949-4.36 5.24-78.175-9.107 20.3-16.082Zm6.154 48.996v-24.907l52.434 5.764h.019c.077.008.154.014.23.014.025 0 .048-.016.074-.017.308-.008.602-.069.871-.194.016-.007.03-.017.045-.025.286-.14.548-.33.758-.584l20.822-25.03v65.547l-71.234-15.628c-2.328-.476-4.019-2.555-4.019-4.94Zm108.784-13.351-28.981 30.985V99.451l18.353 15.358c.212.178.45.31.7.398.101.036.208.033.312.054.149.031.296.078.447.078l.011-.002c.212-.001.42-.051.625-.111.051-.015.104-.011.154-.029.252-.093.491-.231.703-.417l11.411-9.927v18.316c0 3.536-1.322 6.877-3.735 9.422Zm22.979-16.478-16.907-26.106a3.96 3.96 0 0 1-.58-3.023 3.99 3.99 0 0 1 1.771-2.543c.069-.043.151-.108.231-.177l5.798-3.743a4.01 4.01 0 0 1 3.06-.566 4.02 4.02 0 0 1 2.563 1.779l16.894 26.054-12.83 8.325Z" fill="#475D5B"/></svg>