<svg width="56" height="58" viewBox="0 0 56 58" fill="none" xmlns="http://www.w3.org/2000/svg"><path d="M15.747 15.747a2.55 2.55 0 0 0 0 3.606l9.142 9.142-9.142 9.142a2.55 2.55 0 1 0 3.606 3.607l9.142-9.143 9.143 9.143a2.55 2.55 0 0 0 3.606-3.607L32.1 28.495l9.143-9.142a2.55 2.55 0 0 0-3.606-3.606l-9.143 9.142-9.142-9.142a2.55 2.55 0 0 0-3.606 0ZM28 55l-4.742-3.293-.481 5.753L28 55Zm24.204-38.965.448-.222-.448.222ZM23.598 54.132a26.502 26.502 0 0 1-10.727-4.375l-.571.82a27.502 27.502 0 0 0 11.132 4.541l.166-.986Zm-10.727-4.375a26.5 26.5 0 0 1-9.713-12.532l-.938.349A27.5 27.5 0 0 0 12.3 50.578l.57-.821ZM3.158 37.225a26.5 26.5 0 0 1-.82-15.834l-.97-.249a27.5 27.5 0 0 0 .852 16.432l.938-.349Zm-.82-15.834a26.5 26.5 0 0 1 8.365-13.468l-.652-.757a27.5 27.5 0 0 0-8.682 13.976l.968.25Zm8.365-13.468a26.5 26.5 0 0 1 14.558-6.281l-.103-.995A27.5 27.5 0 0 0 10.05 7.166l.652.757Zm14.558-6.281A26.5 26.5 0 0 1 40.8 4.796l.483-.876A27.5 27.5 0 0 0 25.157.647l.103.995ZM40.8 4.796a26.5 26.5 0 0 1 10.956 11.46l.896-.443A27.5 27.5 0 0 0 41.282 3.92l-.482.876Zm10.956 11.46a26.5 26.5 0 0 1 2.452 15.665l.99.148a27.5 27.5 0 0 0-2.546-16.256l-.896.444Z" fill="#80869A"/></svg>