<svg width="80" height="16" viewBox="0 0 80 16" fill="none" xmlns="http://www.w3.org/2000/svg">
<path d="M31 6.5H25.625L24 1.5L22.375 6.5H17L21.375 9.5L19.6875 14.5L24 11.375L28.3125 14.5L26.625 9.5L31 6.5Z" stroke="#00473E" stroke-linejoin="round"/>
<path d="M47 6.5H41.625L40 1.5L38.375 6.5H33L37.375 9.5L35.6875 14.5L40 11.375L44.3125 14.5L42.625 9.5L47 6.5Z" stroke="#00473E" stroke-linejoin="round"/>
<path d="M63 6.5H57.625L56 1.5L54.375 6.5H49L53.375 9.5L51.6875 14.5L56 11.375L60.3125 14.5L58.625 9.5L63 6.5Z" stroke="#00473E" stroke-linejoin="round"/>
<path d="M79 6.5H73.625L72 1.5L70.375 6.5H65L69.375 9.5L67.6875 14.5L72 11.375L76.3125 14.5L74.625 9.5L79 6.5Z" stroke="#00473E" stroke-linejoin="round"/>
<path d="M12.3122 15.0005C12.2069 15.0009 12.1042 14.9681 12.0187 14.9067L7.99966 11.993L3.9806 14.9067C3.89474 14.969 3.79129 15.0024 3.68522 15.002C3.57915 15.0016 3.47595 14.9675 3.39054 14.9046C3.30513 14.8417 3.24193 14.7532 3.21009 14.6521C3.17825 14.5509 3.17942 14.4422 3.21341 14.3417L4.78091 9.69891L0.718413 6.91298C0.630416 6.8527 0.564002 6.76586 0.528872 6.66515C0.493743 6.56444 0.491741 6.45513 0.523158 6.3532C0.554575 6.25127 0.617764 6.16206 0.703494 6.0986C0.789224 6.03514 0.893001 6.00076 0.999663 6.00048H6.01154L7.52404 1.34579C7.55662 1.2453 7.6202 1.15771 7.70564 1.09558C7.79109 1.03346 7.89402 1 7.99966 1C8.10531 1 8.20823 1.03346 8.29368 1.09558C8.37913 1.15771 8.44271 1.2453 8.47529 1.34579L9.98779 6.00204H14.9997C15.1065 6.00199 15.2105 6.03613 15.2964 6.09947C15.3824 6.16281 15.4459 6.25201 15.4775 6.35402C15.5091 6.45603 15.5072 6.56548 15.4721 6.66634C15.437 6.76721 15.3706 6.85419 15.2825 6.91454L11.2184 9.69891L12.785 14.3405C12.8104 14.4156 12.8175 14.4957 12.8058 14.5742C12.7941 14.6526 12.7639 14.7272 12.7177 14.7917C12.6715 14.8561 12.6107 14.9087 12.5401 14.945C12.4696 14.9813 12.3915 15.0003 12.3122 15.0005Z" fill="#00473E"/>
</svg>
