<svg width="46" height="28" viewBox="0 0 46 28" fill="none" xmlns="http://www.w3.org/2000/svg"><path d="M44.224 0H1.523C.686 0 0 .686 0 1.522v3.013h45.747V1.522C45.747.686 45.06 0 44.224 0ZM0 6.112h45.747v3.581H0v-3.58ZM8.636 23.138a.787.787 0 0 0 .994 0 3.785 3.785 0 0 0 0-5.884.787.787 0 0 0-.996 0 3.778 3.778 0 0 0-1.404 2.938 3.787 3.787 0 0 0 1.406 2.946Zm.497-4.094a2.201 2.201 0 0 1 0 2.301 2.217 2.217 0 0 1 0-2.301Z" fill="#000"/><path d="M10.703 23.189a3.018 3.018 0 0 0 3.344-2.997 3.016 3.016 0 0 0-3.344-2.99 4.535 4.535 0 0 1 1.12 2.99 4.525 4.525 0 0 1-1.12 2.997ZM7.234 23.204c.11 0 .22-.008.33-.016a4.525 4.525 0 0 1-1.12-2.997c0-1.136.419-2.185 1.12-2.99a3.01 3.01 0 1 0-.331 6.002Z" fill="#000"/><path d="M0 26.478C0 27.314.686 28 1.522 28h42.703c.835 0 1.522-.686 1.522-1.522V11.27H0v15.207Zm33.127-5.498h7.887v1.727h-7.887V20.98ZM7.233 15.61c.678 0 1.325.15 1.9.418a4.499 4.499 0 0 1 1.901-.418 4.593 4.593 0 0 1 4.59 4.582 4.595 4.595 0 0 1-4.59 4.59c-.678 0-1.325-.15-1.9-.417a4.499 4.499 0 0 1-1.901.418 4.593 4.593 0 0 1-4.583-4.59 4.591 4.591 0 0 1 4.583-4.583Z" fill="#000"/></svg>