<svg width="36" height="36" viewBox="0 0 36 36" fill="none" xmlns="http://www.w3.org/2000/svg"><path d="M24.887 13.713c-6.128 0-11.113 4.998-11.113 11.143C13.774 31.001 18.76 36 24.887 36 31.015 36 36 31 36 24.856c0-6.145-4.985-11.143-11.113-11.143Zm6.087 7.924-6.641 6.66a1.088 1.088 0 0 1-.775.322c-.28 0-.562-.107-.775-.322L18.798 24.3a.472.472 0 0 1 0-.666.469.469 0 0 1 .664 0l3.985 3.996c.061.061.16.061.22 0l6.642-6.66a.469.469 0 0 1 .663 0 .472.472 0 0 1 0 .666h.002ZM31.066.513a1.084 1.084 0 0 0-1.098.005l-1.954 1.146a.154.154 0 0 1-.158 0L25.276.15c-.34-.201-.765-.201-1.106 0l-2.58 1.513a.16.16 0 0 1-.159 0L18.859.152c-.34-.2-.767-.2-1.108 0l-2.573 1.512a.158.158 0 0 1-.158 0L12.447.152c-.342-.2-.766-.2-1.107 0L8.76 1.665a.158.158 0 0 1-.158 0L6.655.521A1.084 1.084 0 0 0 5.557.515a1.087 1.087 0 0 0-.551.952V33.96c0 .79-.315 1.506-.817 2.04h16.034a12.135 12.135 0 0 1-6.621-6.906H9.543a.47.47 0 0 1-.47-.471c0-.26.21-.47.47-.47h3.75a12.061 12.061 0 0 1-.463-3.297c0-.053.008-.103.008-.157H9.543a.47.47 0 0 1-.47-.47c0-.261.21-.471.47-.471h3.342c.11-1.212.398-2.37.84-3.453H9.541a.47.47 0 0 1-.47-.471c0-.26.21-.471.47-.471h4.617a12.13 12.13 0 0 1 2.647-3.453H9.54a.47.47 0 0 1-.47-.471c0-.26.21-.47.47-.47h8.432a11.951 11.951 0 0 1 6.907-2.198c2.49 0 4.807.761 6.73 2.065l.008-13.37c0-.399-.205-.755-.55-.953Zm-3.988 11.003H9.548a.47.47 0 0 1-.47-.471c0-.26.21-.471.47-.471h17.53a.47.47 0 1 1 0 .942Zm0-4.395H9.548a.47.47 0 0 1-.47-.471c0-.26.21-.471.47-.471h17.53a.47.47 0 1 1 0 .942ZM4.07 33.96c0 1.127-.911 2.04-2.035 2.04A2.037 2.037 0 0 1 0 33.96v-8.947h4.07v8.947Z" fill="#000"/></svg>