<svg width="65" height="65" viewBox="0 0 65 65" fill="none" xmlns="http://www.w3.org/2000/svg"><path fill-rule="evenodd" clip-rule="evenodd" d="M26.31 0C11.79 0 0 11.79 0 26.31s11.79 26.31 26.31 26.31c5.584 0 10.759-1.75 15.02-4.722L57.075 63.64a4.642 4.642 0 1 0 6.565-6.565L47.898 41.333a26.163 26.163 0 0 0 4.721-15.023C52.62 11.79 40.83 0 26.31 0Zm0 3.095c12.811 0 23.214 10.404 23.214 23.215S39.121 49.524 26.31 49.524c-12.811 0-23.215-10.403-23.215-23.214 0-12.811 10.403-23.215 23.215-23.215Zm0 3.096c-11.104 0-20.12 9.015-20.12 20.119s9.015 20.119 20.12 20.119c11.104 0 20.119-9.015 20.119-20.12 0-11.104-9.015-20.118-20.12-20.118Zm0 3.095c9.395 0 17.024 7.628 17.024 17.024 0 9.395-7.629 17.024-17.024 17.024-9.396 0-17.024-7.629-17.024-17.024 0-9.396 7.628-17.024 17.024-17.024Zm-6.565 5.816a4.643 4.643 0 0 0-3.283 7.925l3.283 3.283-3.283 3.282a4.643 4.643 0 0 0 6.565 6.565l3.283-3.282 3.282 3.282a4.643 4.643 0 0 0 6.565-6.565l-3.282-3.282 3.282-3.283a4.643 4.643 0 0 0-6.565-6.565l-3.282 3.283-3.283-3.283a4.626 4.626 0 0 0-3.282-1.36Zm0 3.095c.396 0 .792.152 1.094.454l4.377 4.376a1.549 1.549 0 0 0 2.188 0l4.377-4.377a1.549 1.549 0 0 1 2.188 0 1.549 1.549 0 0 1 0 2.189l-4.377 4.377a1.549 1.549 0 0 0 0 2.188l4.377 4.377a1.549 1.549 0 0 1 0 2.188 1.549 1.549 0 0 1-2.188 0l-4.377-4.377a1.549 1.549 0 0 0-2.188 0l-4.377 4.377a1.549 1.549 0 0 1-2.188 0 1.549 1.549 0 0 1 0-2.188l4.376-4.377a1.549 1.549 0 0 0 0-2.188l-4.377-4.377a1.549 1.549 0 0 1 1.095-2.642Zm26.224 25.584 15.483 15.483a1.549 1.549 0 0 1 0 2.188 1.549 1.549 0 0 1-2.188 0L43.778 45.966a26.06 26.06 0 0 0 2.191-2.185Z" fill="#00473E"/></svg>