<svg width="36" height="36" viewBox="0 0 36 36" fill="none" xmlns="http://www.w3.org/2000/svg"><path fill-rule="evenodd" clip-rule="evenodd" d="M3.826 5.148H.355L5.132.378v3.466a1.314 1.314 0 0 1-1.306 1.304Zm19.357 8.924a7.448 7.448 0 0 1 5.257 2.183 7.415 7.415 0 0 1-.011 10.502 7.456 7.456 0 0 1-5.261 2.17 7.454 7.454 0 0 1-5.26-2.177 7.417 7.417 0 0 1 .006-10.506 7.447 7.447 0 0 1 5.27-2.172Zm0 1.192a6.242 6.242 0 0 0-4.407 1.809 6.21 6.21 0 0 0-.023 8.789 6.235 6.235 0 0 0 8.804.026 6.213 6.213 0 0 0 1.838-4.388 6.217 6.217 0 0 0-6.211-6.216v-.02Zm0 .751a5.473 5.473 0 0 1 5.047 3.377 5.457 5.457 0 0 1-1.185 5.948 5.483 5.483 0 0 1-5.958 1.192 5.465 5.465 0 0 1-3.39-5.032 5.46 5.46 0 0 1 1.608-3.869 5.482 5.482 0 0 1 3.879-1.595v-.02Zm2.083 3.088-3.328 2.93-1.019-1.125-.001-.001a.845.845 0 0 0-.591-.306.846.846 0 0 0-.668 1.439l1.593 1.745a.849.849 0 0 0 1.194.071l3.923-3.477a.842.842 0 0 0 .093-1.208.843.843 0 0 0-1.212-.064l.016-.004Zm10.22 12.263-3.62-3.29-2.105 2.101 3.3 3.612v.002a1.721 1.721 0 0 0 2.438.01c.324-.324.504-.763.501-1.22a1.704 1.704 0 0 0-.515-1.215Zm-5.641-5.125a8.145 8.145 0 0 1-1.924 1.918l1.334 1.463 2.055-2.051-1.465-1.33ZM28.111 5.377a1.694 1.694 0 0 0-1.687-1.689h-1.25v9.877a8.253 8.253 0 0 1 2.95 1.409l-.013-9.597Zm-2.938 24.055v1.192a2.437 2.437 0 0 1-2.437 2.431H3.675v1.264A1.69 1.69 0 0 0 5.362 36h21.062a1.69 1.69 0 0 0 1.688-1.681v-4.84l-.832-.907v.002a8.244 8.244 0 0 1-2.106.858Zm-2.448 2.869H1.684A1.692 1.692 0 0 1 0 30.616V5.894h3.846a2.063 2.063 0 0 0 2.06-2.055V0h16.84-.001c.93.014 1.673.773 1.664 1.701v11.711a8.738 8.738 0 0 0-1.226-.091 8.203 8.203 0 0 0-5.91 2.33 8.177 8.177 0 0 0-2.464 5.847c0 2.2.89 4.308 2.465 5.846a8.204 8.204 0 0 0 5.91 2.33c.413 0 .828-.03 1.237-.091v1.029a1.69 1.69 0 0 1-1.695 1.689Zm-8.7-26.467a.373.373 0 0 0 .398.374h6.123a.379.379 0 0 0 .34-.376.379.379 0 0 0-.34-.376h-6.123a.398.398 0 0 0-.398.378ZM3.468 9.272c0 .206.168.372.375.372h16.721a.373.373 0 1 0 0-.746H3.843a.375.375 0 0 0-.375.374Zm0 3.437c0 .206.168.374.375.374h16.721a.373.373 0 1 0 0-.747H3.843a.372.372 0 0 0-.375.373Zm0 3.438c.01.202.171.365.375.377h11.796a.376.376 0 0 0 .292-.096.378.378 0 0 0-.292-.655H3.843a.375.375 0 0 0-.375.374Zm0 3.437c0 .211.163.385.375.397h10.283a.377.377 0 0 0 0-.751H3.843c-.2 0-.364.155-.375.354Zm0 3.442c0 .206.168.374.375.374h10.211a.379.379 0 0 0 0-.752H3.843a.374.374 0 0 0-.375.377Zm12.286 3.436a.396.396 0 0 0-.398-.397H3.81a.379.379 0 0 0 0 .751h11.546a.396.396 0 0 0 .398-.354Z" fill="#FAAE2B"/></svg>