<svg width="60" height="60" viewBox="0 0 60 60" fill="none" xmlns="http://www.w3.org/2000/svg"><circle cx="30" cy="30" r="30" fill="#E3F1EC"/><path d="M27.5 47.285h-.047a3.275 3.275 0 0 0 1.202 1.927c.625.49 1.41.756 2.218.752a3.572 3.572 0 0 0 2.21-.77 3.271 3.271 0 0 0 1.184-1.939c-.115.02-.232.03-.35.035l-6.418-.005ZM26.624 44.17c-.224 0-.447-.03-.663-.089v1.02c0 .389.163.763.452 1.038.29.276.682.43 1.09.43h6.44c.409 0 .801-.154 1.09-.43.29-.275.453-.649.453-1.039v-.965c-.118.02-.236.031-.355.035h-8.507ZM30.857 15.673c-6.959 0-11.052 5.388-11.052 11.99 0 3.223 2.057 6.152 4.191 8.327a7.101 7.101 0 0 1 1.8 3.1c.264-.098.545-.15.828-.151h8.47c.282.002.561.053.823.151a7.071 7.071 0 0 1 1.8-3.1c2.12-2.155 4.192-5.084 4.192-8.327 0-6.602-4.094-11.99-11.052-11.99Zm4.993 9.664a.4.4 0 0 1 .201.052c.061.035.11.085.144.145a.353.353 0 0 1-.026.381l-7.765 10.633a.417.417 0 0 1-.319.157.377.377 0 0 1-.35-.214.351.351 0 0 1-.02-.251l2.056-7.195h-3.903a.413.413 0 0 1-.308-.142.359.359 0 0 1-.067-.319l2.216-8.287a.372.372 0 0 1 .14-.197.404.404 0 0 1 .236-.077h7.765a.4.4 0 0 1 .201.052c.061.034.11.084.144.144a.35.35 0 0 1-.026.377l-3.394 4.741h3.075ZM35.094 39.654h-8.47c-.827 0-1.497.638-1.497 1.425v.93c0 .788.67 1.426 1.497 1.426h8.47c.826 0 1.496-.638 1.496-1.425v-.93c0-.788-.67-1.426-1.496-1.426Z" fill="#00473E"/><path d="M26.363 28.31h3.945c.059 0 .117.013.17.039a.372.372 0 0 1 .133.108.359.359 0 0 1 .067.318l-1.62 5.589 6.058-8.292h-3.085a.412.412 0 0 1-.2-.054.357.357 0 0 1-.119-.525l3.389-4.736h-6.717l-2.02 7.553ZM12.184 26.753c.01-.991.244-1.969.688-2.865a6.912 6.912 0 0 1 1.883-2.327.371.371 0 0 0 .13-.254.354.354 0 0 0-.096-.268.387.387 0 0 0-.267-.124.408.408 0 0 0-.28.092 7.549 7.549 0 0 0-2.076 2.575 7.196 7.196 0 0 0-.738 3.168c0 1.095.252 2.177.738 3.169a7.55 7.55 0 0 0 2.075 2.574.38.38 0 0 0 .252.093.4.4 0 0 0 .223-.063.371.371 0 0 0 .145-.174.351.351 0 0 0 .012-.221.365.365 0 0 0-.123-.188 6.881 6.881 0 0 1-1.882-2.325 6.56 6.56 0 0 1-.684-2.862Z" fill="#00473E"/><path d="M15.48 26.753c.006-.594.146-1.18.413-1.717a4.126 4.126 0 0 1 1.13-1.394.373.373 0 0 0 .13-.254.353.353 0 0 0-.096-.267.386.386 0 0 0-.267-.124.405.405 0 0 0-.28.092 4.805 4.805 0 0 0-1.34 1.643 4.578 4.578 0 0 0-.477 2.03c0 .702.163 1.395.477 2.03a4.805 4.805 0 0 0 1.34 1.644.39.39 0 0 0 .62-.16.347.347 0 0 0-.116-.398 4.12 4.12 0 0 1-1.13-1.402 3.929 3.929 0 0 1-.403-1.723ZM8.1 26.752a9.822 9.822 0 0 1 1.01-4.28 10.302 10.302 0 0 1 2.8-3.483.359.359 0 0 0 .034-.522.4.4 0 0 0-.548-.032 10.927 10.927 0 0 0-3.018 3.73 10.414 10.414 0 0 0-1.073 4.597c0 1.589.366 3.158 1.073 4.597a10.927 10.927 0 0 0 3.018 3.73.4.4 0 0 0 .548-.032.359.359 0 0 0-.033-.522 10.305 10.305 0 0 1-2.805-3.492 9.826 9.826 0 0 1-1.006-4.29ZM47.49 21.007a.392.392 0 0 0-.282-.092.406.406 0 0 0-.267.124.366.366 0 0 0-.096.268.356.356 0 0 0 .13.254 6.812 6.812 0 0 1 1.88 2.325 6.49 6.49 0 0 1 .67 2.864 6.49 6.49 0 0 1-.67 2.865 6.812 6.812 0 0 1-1.88 2.325.365.365 0 0 0-.123.188.35.35 0 0 0 .013.221c.028.07.078.131.144.174a.4.4 0 0 0 .223.063.38.38 0 0 0 .252-.093 7.55 7.55 0 0 0 2.076-2.574 7.196 7.196 0 0 0 .738-3.169 7.196 7.196 0 0 0-.738-3.168 7.549 7.549 0 0 0-2.076-2.575h.005Z" fill="#00473E"/><path d="M45.206 23.089a.393.393 0 0 0-.281-.092.402.402 0 0 0-.267.124.366.366 0 0 0-.097.267.356.356 0 0 0 .13.254c.48.38.867.854 1.132 1.391a3.876 3.876 0 0 1 0 3.434 4.07 4.07 0 0 1-1.132 1.39.352.352 0 0 0-.026.51.374.374 0 0 0 .289.128.37.37 0 0 0 .252-.094 4.804 4.804 0 0 0 1.34-1.643 4.577 4.577 0 0 0 .476-2.03c0-.702-.163-1.395-.477-2.03a4.806 4.806 0 0 0-1.34-1.643v.034ZM50.307 18.436a.4.4 0 0 0-.547.031.36.36 0 0 0 .033.522 10.192 10.192 0 0 1 2.81 3.477 9.713 9.713 0 0 1 1 4.284c0 1.48-.342 2.942-1 4.283a10.192 10.192 0 0 1-2.81 3.478.37.37 0 0 0-.13.254.354.354 0 0 0 .097.267.387.387 0 0 0 .267.124.408.408 0 0 0 .28-.092 10.925 10.925 0 0 0 3.007-3.726 10.414 10.414 0 0 0 1.07-4.588c0-1.585-.365-3.152-1.07-4.588a10.925 10.925 0 0 0-3.007-3.726Z" fill="#00473E"/></svg>