<svg width="60" height="60" viewBox="0 0 60 60" fill="none" xmlns="http://www.w3.org/2000/svg"><circle cx="30" cy="30" r="30" fill="#E3F1EC"/><g clip-path="url(#a)" fill="#00473E"><path d="M20.576 30.588h11.562V19.41H20.576v11.177Zm8.52-10h1.825v1.764h-1.826v-1.764Zm0 3.529h1.825v1.765h-1.826v-1.765Zm0 3.53h1.825v1.764h-1.826v-1.765Zm-3.652-7.06h1.826v1.765h-1.826v-1.764Zm0 3.53h1.826v1.765h-1.826v-1.765Zm0 3.53h1.826v1.764h-1.826v-1.765Zm-3.65-7.06h1.825v1.765h-1.826v-1.764Zm0 3.53h1.825v1.765h-1.826v-1.765Zm0 3.53h1.825v1.764h-1.826v-1.765ZM42.178 37.059H22.705v2.94h19.473c.403 0 .79-.154 1.075-.43.286-.276.446-.65.446-1.04s-.16-.764-.446-1.04a1.548 1.548 0 0 0-1.075-.43Zm-12.17 2.352H24.53v-1.176h5.476v1.176Z"/><path d="M21.488 40.588V36.47c0-.156.064-.306.178-.416a.62.62 0 0 1 .43-.172h13.692v-23.53a.578.578 0 0 0-.178-.415.619.619 0 0 0-.43-.173H17.531a.619.619 0 0 0-.43.173.578.578 0 0 0-.178.415V46.47c0 .156.064.306.178.416a.62.62 0 0 0 .43.172H35.18a.62.62 0 0 0 .43-.172.579.579 0 0 0 .179-.416v-5.294H22.096a.62.62 0 0 1-.43-.172.578.578 0 0 1-.178-.416Zm.608-25.883h8.52v1.177h-8.52v-1.177Zm-2.738 16.47V18.824c0-.156.064-.306.178-.416a.62.62 0 0 1 .43-.172h12.78a.62.62 0 0 1 .43.172c.114.11.178.26.178.416v12.353a.579.579 0 0 1-.178.416.62.62 0 0 1-.43.172h-12.78a.62.62 0 0 1-.43-.172.579.579 0 0 1-.178-.416ZM38.095 30.777a4.335 4.335 0 0 1 1.895 1.06 4.128 4.128 0 0 1 1.11 1.823c.03.13.105.247.213.33a.622.622 0 0 0 .894-.143.572.572 0 0 0 .08-.443A5.282 5.282 0 0 0 40.844 31a5.553 5.553 0 0 0-2.5-1.372.625.625 0 0 0-.45.09.588.588 0 0 0-.256.368.572.572 0 0 0 .082.437c.086.13.22.221.375.256v-.003ZM47.812 31.407a9.349 9.349 0 0 0-2.694-4.506 9.797 9.797 0 0 0-4.706-2.613.63.63 0 0 0-.463.077.6.6 0 0 0-.268.374.57.57 0 0 0 .088.446.6.6 0 0 0 .39.253 8.565 8.565 0 0 1 4.099 2.295 8.184 8.184 0 0 1 2.366 3.926c.03.131.104.248.212.332a.622.622 0 0 0 .894-.14.572.572 0 0 0 .082-.444ZM42.99 28.958a7.497 7.497 0 0 0-3.61-2 .626.626 0 0 0-.459.083.588.588 0 0 0-.263.37.572.572 0 0 0 .085.444.61.61 0 0 0 .384.254c1.13.297 2.16.872 2.99 1.67a6.48 6.48 0 0 1 1.744 2.88c.03.13.105.248.213.331a.622.622 0 0 0 .894-.14.572.572 0 0 0 .082-.444 7.165 7.165 0 0 0-2.06-3.448Z"/></g><defs><clipPath id="a"><path fill="#fff" transform="translate(14.12 10.588)" d="M0 0h35.294v38.824H0z"/></clipPath></defs></svg>