<svg width="60" height="60" viewBox="0 0 60 60" fill="none" xmlns="http://www.w3.org/2000/svg"><circle cx="30" cy="30" r="30" fill="#E3F1EC"/><path fill-rule="evenodd" clip-rule="evenodd" d="M30.001 6.667C17.115 6.667 6.668 17.114 6.668 30c0 2.317.338 4.555.966 6.667h44.734c.629-2.112.967-4.35.967-6.667C53.335 17.114 42.888 6.667 30 6.667Zm-1.666 10a5 5 0 1 0 0 10h3.333a5 5 0 1 0 0-10h-3.333Z" fill="#00473E"/><path d="M30.002 53.333c-9.308 0-17.343-5.45-21.088-13.333H51.09c-3.745 7.883-11.78 13.333-21.088 13.333Z" fill="#00473E"/><path fill-rule="evenodd" clip-rule="evenodd" d="M26.668 21.667c0-.92.746-1.667 1.667-1.667h3.333a1.667 1.667 0 0 1 0 3.333h-3.333c-.92 0-1.667-.746-1.667-1.666Z" fill="#00473E"/></svg>