<svg width="60" height="60" viewBox="0 0 60 60" fill="none" xmlns="http://www.w3.org/2000/svg"><circle cx="30" cy="30" r="30" fill="#E3F1EC"/><path d="M40.044 23.727c.592 0 1.073-.473 1.073-1.057s-.48-1.057-1.073-1.057-1.073.474-1.073 1.057c0 .584.48 1.057 1.073 1.057ZM46.985 23.727c.593 0 1.073-.473 1.073-1.057s-.48-1.057-1.073-1.057-1.073.474-1.073 1.057c0 .584.48 1.057 1.073 1.057Z" fill="#00473E"/><path d="M49.63 18.408H30.463c-.96 4.421-5.007 7.689-9.657 7.689s-8.689-3.268-9.65-7.69h-.785c-1.171 0-2.125.94-2.125 2.094v11.958h43.502V20.501c.007-1.154-.947-2.093-2.118-2.093Zm-9.587 6.66c-1.34 0-2.434-1.078-2.434-2.398s1.094-2.397 2.434-2.397 2.434 1.078 2.434 2.397c0 1.32-1.094 2.397-2.434 2.397Zm6.943 0c-1.34 0-2.434-1.078-2.434-2.398s1.094-2.397 2.434-2.397 2.433 1.078 2.433 2.397c0 1.32-1.094 2.397-2.433 2.397Z" fill="#00473E"/><path d="M20.813 24.756c4.18 0 7.806-3.06 8.43-7.122a8.46 8.46 0 0 0 .098-1.264c0-4.629-3.822-8.387-8.52-8.387-4.7 0-8.514 3.765-8.514 8.387 0 .428.035.85.098 1.264.61 4.062 4.229 7.122 8.408 7.122Zm.477-3.336a.664.664 0 0 1-.484.193.666.666 0 0 1-.26-.048.67.67 0 0 1-.414-.622.64.64 0 0 1 .05-.256.941.941 0 0 1 .148-.22.712.712 0 0 1 .96 0c.07.068.113.137.148.22a.645.645 0 0 1-.148.733Zm2.195-2.487a.684.684 0 0 1-.484.193.684.684 0 0 1-.484-.193c-.925-.912-2.377-.96-3.24-.104a.684.684 0 0 1-.96 0 .66.66 0 0 1 0-.947c1.395-1.374 3.71-1.326 5.161.104.267.263.267.691.007.947Zm1.627-2.287a.684.684 0 0 1-.483.193.684.684 0 0 1-.484-.193c-1.866-1.838-4.818-1.928-6.586-.194a.685.685 0 0 1-.96 0 .66.66 0 0 1 0-.946c2.293-2.259 6.108-2.17 8.506.194a.666.666 0 0 1 .007.946ZM14.894 13.13c3.184-3.144 8.5-3.02 11.845.276a.66.66 0 0 1 0 .946.684.684 0 0 1-.483.194.684.684 0 0 1-.484-.194c-2.813-2.77-7.266-2.894-9.924-.276a.684.684 0 0 1-.96 0 .666.666 0 0 1 .006-.946ZM8.246 37.226c0 1.154.954 2.093 2.125 2.093h6.382v-1.313c0-1.133.933-2.051 2.083-2.051h22.33c1.15 0 2.082.919 2.082 2.052v1.312h6.382c1.17 0 2.125-.94 2.125-2.093v-3.427H8.246v3.427Z" fill="#00473E"/><path d="M41.165 37.295h-22.33c-.4 0-.722.318-.722.712v1.312h23.774v-1.313a.716.716 0 0 0-.722-.711ZM21.759 45.267c.385-.331.911-.787.911-1.678a.671.671 0 0 0-.68-.67.671.671 0 0 0-.68.67c0 .262-.112.38-.45.677-.385.331-.91.787-.91 1.678 0 .892.525 1.347.91 1.679.338.297.45.415.45.677 0 .263-.112.38-.45.677-.385.332-.91.788-.91 1.679 0 .373.3.67.68.67.378 0 .68-.297.68-.67 0-.263.112-.38.449-.677.385-.332.911-.788.911-1.679s-.526-1.347-.911-1.679c-.337-.297-.45-.414-.45-.677 0-.262.106-.38.45-.677ZM30.448 45.267c.386-.331.912-.787.912-1.678a.671.671 0 0 0-.68-.67.676.676 0 0 0-.68.67c0 .262-.113.38-.45.677-.385.331-.911.787-.911 1.678 0 .892.526 1.347.911 1.679.337.297.45.415.45.677 0 .263-.113.38-.45.677-.385.332-.911.788-.911 1.679 0 .373.301.67.68.67.379 0 .68-.297.68-.67 0-.263.112-.38.449-.677.386-.332.912-.788.912-1.679s-.526-1.347-.912-1.679c-.337-.297-.449-.414-.449-.677 0-.262.112-.38.449-.677ZM39.138 45.267c.385-.331.911-.787.911-1.678a.671.671 0 0 0-.68-.67.671.671 0 0 0-.68.67c0 .262-.113.38-.45.677-.385.331-.91.787-.91 1.678 0 .892.525 1.347.91 1.679.337.297.45.415.45.677 0 .263-.113.38-.45.677-.385.332-.91.788-.91 1.679 0 .373.3.67.68.67.378 0 .68-.297.68-.67 0-.263.112-.38.449-.677.385-.332.911-.788.911-1.679s-.526-1.347-.911-1.679c-.337-.297-.45-.414-.45-.677 0-.262.113-.38.45-.677Z" fill="#00473E"/></svg>