<svg width="60" height="60" viewBox="0 0 60 60" fill="none" xmlns="http://www.w3.org/2000/svg"><circle cx="30" cy="30" r="30" fill="#E3F1EC"/><path d="M42.364 14.111h-5.428a.906.906 0 0 0 0 1.81h5.428a.906.906 0 0 0 0-1.81Z" fill="#00473E"/><path d="M45.08 12h-18.7v6.032h19.905v-4.826c0-.665-.54-1.206-1.206-1.206Zm-14.778 5.127a2.114 2.114 0 0 1-2.112-2.111c0-1.164.947-2.111 2.111-2.111 1.165 0 2.112.947 2.112 2.11a2.114 2.114 0 0 1-2.111 2.112Zm12.063 0h-5.429a2.114 2.114 0 0 1-2.11-2.111c0-1.164.946-2.111 2.11-2.111h5.429c1.164 0 2.111.947 2.111 2.11a2.114 2.114 0 0 1-2.111 2.112ZM13.715 46.984c0 .665.541 1.206 1.206 1.206H45.08c.665 0 1.206-.54 1.206-1.206V19.238H13.715v27.746ZM30 21.35c6.819 0 12.365 5.547 12.365 12.365 0 6.819-5.547 12.365-12.365 12.365-6.818 0-12.364-5.547-12.364-12.365 0-6.818 5.546-12.365 12.364-12.365Z" fill="#00473E"/><path d="M30.301 15.92a.905.905 0 1 0 0-1.809.905.905 0 0 0 0 1.81ZM30.002 44.873c6.153 0 11.16-5.006 11.16-11.159 0-6.153-5.007-11.158-11.16-11.158-6.152 0-11.158 5.005-11.158 11.158s5.005 11.159 11.158 11.159Zm0-20.206c4.99 0 9.048 4.058 9.048 9.047 0 4.99-4.059 9.048-9.048 9.048-4.988 0-9.047-4.059-9.047-9.048 0-4.988 4.059-9.047 9.047-9.047Z" fill="#00473E"/><path d="M30.001 41.555c4.324 0 7.842-3.517 7.842-7.841S34.325 25.873 30 25.873c-4.323 0-7.84 3.517-7.84 7.84 0 4.325 3.517 7.842 7.84 7.842Zm0-4.524c-.532 0-.904-.372-.904-.904 0-.533.372-.905.904-.905.533 0 .905.372.905.904 0 .533-.372.905-.905.905Zm2.926-2.081a.601.601 0 0 1-.844-.12c-.384-.51-1.162-.815-2.082-.815-.92 0-1.698.305-2.08.815a.603.603 0 1 1-.965-.725c.61-.811 1.748-1.296 3.045-1.296 1.298 0 2.436.485 3.046 1.296.2.267.147.645-.12.845Zm-7.748-2.694c1.157-1.293 3.095-2.161 4.822-2.161 1.728 0 3.666.868 4.823 2.161a.603.603 0 1 1-.899.804c-.927-1.035-2.54-1.759-3.924-1.759-1.383 0-2.996.724-3.923 1.76a.603.603 0 0 1-.899-.805ZM25.175 12H14.921c-.665 0-1.206.541-1.206 1.206v4.826h11.46V12Z" fill="#00473E"/></svg>