<svg width="60" height="60" viewBox="0 0 60 60" fill="none" xmlns="http://www.w3.org/2000/svg"><circle cx="30" cy="30" r="30" fill="#E3F1EC"/><path d="M28.906 10.372a.908.908 0 0 0 0 1.377c.423.38 1.108.38 1.53 0 .409-.368 1.122-.368 1.53 0 .211.19.488.285.765.285s.554-.095.765-.285a.905.905 0 0 0 0-1.376c-1.226-1.104-3.363-1.104-4.59-.001Z" fill="#00473E"/><path d="M27.374 8.995c2.11-1.898 5.542-1.897 7.649 0 .211.19.488.285.765.285s.554-.096.765-.285a.905.905 0 0 0 0-1.377c-2.952-2.658-7.756-2.657-10.708 0a.905.905 0 0 0 0 1.377c.422.38 1.106.38 1.53 0ZM33.1 38.319h2.163c.598 0 1.081-.436 1.081-.974s-.483-.973-1.081-.973h-2.164c-.598 0-1.081.435-1.081.973s.483.974 1.081.974ZM33.1 42.213h2.163c.598 0 1.081-.435 1.081-.973 0-.539-.483-.974-1.081-.974h-2.164c-.598 0-1.081.435-1.081.974 0 .538.483.973 1.081.973Z" fill="#00473E"/><path d="M43.918 18.279c.599 0 1.082-.436 1.082-.974v-.57c0-1.61-1.456-2.921-3.245-2.921H20.12c-1.789 0-3.245 1.31-3.245 2.92v.571c0 .538.485.974 1.082.974h1.48l5.459 10.305h-2.612c-1.79 0-3.245 1.31-3.245 2.92v11.683c0 .385.087.75.237 1.085-1.379.338-2.401 1.463-2.401 2.81v3.893c0 .539.485.974 1.082.974h25.961c.599 0 1.082-.435 1.082-.974v-3.894c0-1.61-1.456-2.92-3.245-2.92h-1.282c.121-.306.2-.63.2-.974v-8.762h2.163v8.191c0 .539.484.974 1.082.974.599 0 1.082-.435 1.082-.974v-9.165c0-.538-.483-.973-1.082-.973h-3.245v-.974c0-1.61-1.456-2.92-3.245-2.92h-.45l5.46-10.305h1.48ZM38.51 43.187c0 .537-.485.974-1.082.974H22.284c-.596 0-1.082-.437-1.082-.974v-8.762H38.51v8.762ZM37.428 30.53c.597 0 1.082.436 1.082.973v.974H21.202v-.974c0-.537.486-.973 1.082-.973h15.144ZM20.12 16.33h-.984c.17-.335.547-.57.984-.57h21.635c.436 0 .814.235.984.57H20.12Z" fill="#00473E"/></svg>