<svg width="45" height="38" viewBox="0 0 45 38" fill="none" xmlns="http://www.w3.org/2000/svg"><path d="M14.144 35.467c1.42 0 2.571-1.135 2.571-2.534 0-1.399-1.151-2.533-2.571-2.533-1.42 0-2.572 1.134-2.572 2.533 0 1.4 1.152 2.534 2.572 2.534ZM32.144 35.467c1.42 0 2.571-1.135 2.571-2.534 0-1.399-1.151-2.533-2.571-2.533-1.42 0-2.572 1.134-2.572 2.533 0 1.4 1.152 2.534 2.572 2.534Z" fill="#F2F7F5"/><path fill-rule="evenodd" clip-rule="evenodd" d="M28.841 8.867H10.76l-.493-2.754a1.263 1.263 0 0 0-.44-.75 1.297 1.297 0 0 0-.826-.296H3.858c-.341 0-.668.133-.91.37a1.257 1.257 0 0 0 0 1.792c.242.238.569.371.91.371h4.064l3.67 20.487c.052.293.208.559.44.75.231.192.524.297.826.297h20.571c.341 0 .668-.134.91-.371a1.257 1.257 0 0 0 0-1.792 1.296 1.296 0 0 0-.91-.37H13.936l-.453-2.534h19.42c.445 0 .877-.153 1.222-.431a1.9 1.9 0 0 0 .67-1.096l.986-4.856c-.273.033-.551.05-.834.05-3.678 0-6.66-2.836-6.66-6.334 0-.9.198-1.757.554-2.533Z" fill="#F2F7F5"/><path d="M36.235 3.8c-3.674 0-6.663 2.84-6.663 6.333 0 3.493 2.99 6.334 6.663 6.334s6.662-2.841 6.662-6.334c0-3.492-2.99-6.333-6.662-6.333Zm0 11.963c-3.266 0-5.922-2.526-5.922-5.63s2.656-5.63 5.922-5.63c3.265 0 5.921 2.526 5.921 5.63s-2.656 5.63-5.921 5.63Z" fill="#F2F7F5"/><path d="m39.582 7.755-4.12 3.917-2.578-2.45a.432.432 0 0 0-.588 0 .382.382 0 0 0 0 .559l2.873 2.73a.425.425 0 0 0 .295.116.429.429 0 0 0 .295-.116l4.413-4.196a.382.382 0 0 0 0-.56.433.433 0 0 0-.59 0Z" fill="#F2F7F5"/></svg>