<svg width="80" height="16" viewBox="0 0 80 16" fill="none" xmlns="http://www.w3.org/2000/svg">
<path d="M15 6.5H9.625L8 1.5L6.375 6.5H1L5.375 9.5L3.6875 14.5L8 11.375L12.3125 14.5L10.625 9.5L15 6.5Z" stroke="#00473E" stroke-linejoin="round"/>
<path d="M31 6.5H25.625L24 1.5L22.375 6.5H17L21.375 9.5L19.6875 14.5L24 11.375L28.3125 14.5L26.625 9.5L31 6.5Z" stroke="#00473E" stroke-linejoin="round"/>
<path d="M47 6.5H41.625L40 1.5L38.375 6.5H33L37.375 9.5L35.6875 14.5L40 11.375L44.3125 14.5L42.625 9.5L47 6.5Z" stroke="#00473E" stroke-linejoin="round"/>
<path d="M63 6.5H57.625L56 1.5L54.375 6.5H49L53.375 9.5L51.6875 14.5L56 11.375L60.3125 14.5L58.625 9.5L63 6.5Z" stroke="#00473E" stroke-linejoin="round"/>
<path d="M79 6.5H73.625L72 1.5L70.375 6.5H65L69.375 9.5L67.6875 14.5L72 11.375L76.3125 14.5L74.625 9.5L79 6.5Z" stroke="#00473E" stroke-linejoin="round"/>
</svg>
